<svg width="48" height="49" viewBox="0 0 48 49" fill="none" xmlns="http://www.w3.org/2000/svg">
<rect y="0.5" width="48" height="48" rx="24" fill="#539DF3" fill-opacity="0.37"/>
<path d="M17 25.2596C17 23.9019 17 23.223 17.2745 22.6262C17.5489 22.0295 18.0644 21.5877 19.0953 20.7041L20.0953 19.8469C21.9586 18.2498 22.8902 17.4512 24 17.4512C25.1098 17.4512 26.0414 18.2498 27.9047 19.8469L28.9047 20.7041C29.9356 21.5877 30.4511 22.0295 30.7255 22.6262C31 23.223 31 23.9019 31 25.2596V29.5C31 31.3856 31 32.3284 30.4142 32.9142C29.8284 33.5 28.8856 33.5 27 33.5H21C19.1144 33.5 18.1716 33.5 17.5858 32.9142C17 32.3284 17 31.3856 17 29.5V25.2596Z" stroke="#33363F" stroke-width="2"/>
<path d="M26.5 33.5V28.5C26.5 27.9477 26.0523 27.5 25.5 27.5H22.5C21.9477 27.5 21.5 27.9477 21.5 28.5V33.5" stroke="#33363F" stroke-width="2" stroke-linecap="round" stroke-linejoin="round"/>
</svg>
