<svg width="48" height="49" viewBox="0 0 48 49" fill="none" xmlns="http://www.w3.org/2000/svg">
<rect y="0.5" width="48" height="48" rx="24" fill="#539DF3" fill-opacity="0.37"/>
<path d="M26.55 17.75C27.65 17.75 28.55 16.85 28.55 15.75C28.55 14.65 27.65 13.75 26.55 13.75C25.45 13.75 24.55 14.65 24.55 15.75C24.55 16.85 25.45 17.75 26.55 17.75ZM22.95 31.65L23.95 27.25L26.05 29.25V35.25H28.05V27.75L25.95 25.75L26.55 22.75C27.85 24.25 29.85 25.25 32.05 25.25V23.25C30.15 23.25 28.55 22.25 27.75 20.85L26.75 19.25C26.35 18.65 25.75 18.25 25.05 18.25C24.75 18.25 24.55 18.35 24.25 18.35L19.05 20.55V25.25H21.05V21.85L22.85 21.15L21.25 29.25L16.35 28.25L15.95 30.25L22.95 31.65Z" fill="black"/>
</svg>
