<svg width="50" height="51" viewBox="0 0 50 51" fill="none" xmlns="http://www.w3.org/2000/svg">
<rect y="0.5" width="50" height="50" rx="25" fill="#539DF3" fill-opacity="0.37"/>
<path d="M32.9364 18.7592C33.6667 19.8522 33.6667 21.3737 33.6667 24.4167C33.6667 27.4597 33.6667 28.9812 32.9364 30.0741C32.6203 30.5473 32.214 30.9536 31.7408 31.2697C30.786 31.9077 29.5042 31.9883 27.1667 31.9985V32L25.969 34.3954C25.5698 35.1939 24.4303 35.1939 24.0311 34.3954L22.8334 32V31.9985C20.4959 31.9883 19.214 31.9077 18.2592 31.2697C17.7861 30.9536 17.3798 30.5473 17.0637 30.0741C16.3334 28.9812 16.3334 27.4597 16.3334 24.4167C16.3334 21.3737 16.3334 19.8522 17.0637 18.7592C17.3798 18.286 17.7861 17.8798 18.2592 17.5636C19.3522 16.8333 20.8737 16.8333 23.9167 16.8333H26.0834C29.1264 16.8333 30.6479 16.8333 31.7408 17.5636C32.214 17.8798 32.6203 18.286 32.9364 18.7592Z" stroke="#33363F" stroke-width="2" stroke-linecap="round" stroke-linejoin="round"/>
<path d="M21.75 22.25L28.25 22.25" stroke="#33363F" stroke-width="2" stroke-linecap="round" stroke-linejoin="round"/>
<path d="M21.75 26.5833H25" stroke="#33363F" stroke-width="2" stroke-linecap="round" stroke-linejoin="round"/>
</svg>
